<mxfile host="app.diagrams.net" modified="2021-08-23T22:55:49.526Z" agent="5.0 (Macintosh)" etag="1MSLJMrF4-RvZbJi-RuG" version="14.9.8" type="github">
  <diagram id="Asg4t91BoBA0pmLis922" name="Page-1">
    <mxGraphModel dx="703" dy="839" grid="1" gridSize="10" guides="1" tooltips="1" connect="1" arrows="1" fold="1" page="1" pageScale="1" pageWidth="827" pageHeight="1169" math="0" shadow="0">
      <root>
        <mxCell id="0" />
        <mxCell id="1" parent="0" />
        <mxCell id="r9OYmFzAwWM_W3pXWBBk-1" value="Asociado" style="swimlane;childLayout=stackLayout;horizontal=1;startSize=30;horizontalStack=0;rounded=1;fontSize=14;fontStyle=0;strokeWidth=2;resizeParent=0;resizeLast=1;shadow=0;dashed=0;align=center;" vertex="1" parent="1">
          <mxGeometry x="30" y="120" width="160" height="290" as="geometry" />
        </mxCell>
        <mxCell id="r9OYmFzAwWM_W3pXWBBk-2" value="+cedula&#xa;+codigo&#xa;+nombre&#xa;+apellido&#xa;+fecha_nac&#xa;+edad&#xa;+ciudad&#xa;+direccion&#xa;+telefono&#xa;+celular&#xa;+correo&#xa;+fecha_in&#xa;+fecha_out&#xa;+familia&#xa;+persona_rec&#xa;+cedula_rec&#xa;+avalador&#xa;" style="align=left;strokeColor=none;fillColor=none;spacingLeft=4;fontSize=12;verticalAlign=top;resizable=0;rotatable=0;part=1;" vertex="1" parent="r9OYmFzAwWM_W3pXWBBk-1">
          <mxGeometry y="30" width="160" height="260" as="geometry" />
        </mxCell>
        <mxCell id="r9OYmFzAwWM_W3pXWBBk-5" value="Cuentas" style="swimlane;childLayout=stackLayout;horizontal=1;startSize=30;horizontalStack=0;rounded=1;fontSize=14;fontStyle=0;strokeWidth=2;resizeParent=0;resizeLast=1;shadow=0;dashed=0;align=center;" vertex="1" parent="1">
          <mxGeometry x="400" y="140" width="160" height="120" as="geometry" />
        </mxCell>
        <mxCell id="r9OYmFzAwWM_W3pXWBBk-6" value="+ID&#xa;+codigo&#xa;+saldo&#xa;+tipoCuenta&#xa;" style="align=left;strokeColor=none;fillColor=none;spacingLeft=4;fontSize=12;verticalAlign=top;resizable=0;rotatable=0;part=1;" vertex="1" parent="r9OYmFzAwWM_W3pXWBBk-5">
          <mxGeometry y="30" width="160" height="90" as="geometry" />
        </mxCell>
        <mxCell id="r9OYmFzAwWM_W3pXWBBk-7" value="Creditos" style="swimlane;childLayout=stackLayout;horizontal=1;startSize=30;horizontalStack=0;rounded=1;fontSize=14;fontStyle=0;strokeWidth=2;resizeParent=0;resizeLast=1;shadow=0;dashed=0;align=center;" vertex="1" parent="1">
          <mxGeometry x="510" y="480" width="160" height="190" as="geometry" />
        </mxCell>
        <mxCell id="r9OYmFzAwWM_W3pXWBBk-8" value="+ID&#xa;+codigo&#xa;+interes&#xa;+seguro&#xa;+cuotas&#xa;+cuota&#xa;+intCuota&#xa;+capital&#xa;+intereses" style="align=left;strokeColor=none;fillColor=none;spacingLeft=4;fontSize=12;verticalAlign=top;resizable=0;rotatable=0;part=1;" vertex="1" parent="r9OYmFzAwWM_W3pXWBBk-7">
          <mxGeometry y="30" width="160" height="160" as="geometry" />
        </mxCell>
        <mxCell id="r9OYmFzAwWM_W3pXWBBk-9" value="Caja" style="swimlane;childLayout=stackLayout;horizontal=1;startSize=30;horizontalStack=0;rounded=1;fontSize=14;fontStyle=0;strokeWidth=2;resizeParent=0;resizeLast=1;shadow=0;dashed=0;align=center;" vertex="1" parent="1">
          <mxGeometry x="254" y="445" width="160" height="140" as="geometry" />
        </mxCell>
        <mxCell id="r9OYmFzAwWM_W3pXWBBk-10" value="+ID&#xa;+codigo&#xa;+nRecibo&#xa;+fecha&#xa;+concepto&#xa;+valor" style="align=left;strokeColor=none;fillColor=none;spacingLeft=4;fontSize=12;verticalAlign=top;resizable=0;rotatable=0;part=1;" vertex="1" parent="r9OYmFzAwWM_W3pXWBBk-9">
          <mxGeometry y="30" width="160" height="110" as="geometry" />
        </mxCell>
      </root>
    </mxGraphModel>
  </diagram>
</mxfile>
